{
	"asset":{
		"generator":"Khronos glTF Blender I/O v4.2.60",
		"version":"2.0"
	},
	"extensionsUsed":[
		"KHR_materials_specular"
	],
	"scene":0,
	"scenes":[
		{
			"name":"Scene",
			"nodes":[
				0,
				1,
				2
			]
		}
	],
	"nodes":[
		{
			"mesh":0,
			"name":"Cube.001"
		},
		{
			"mesh":1,
			"name":"carrier",
			"rotation":[
				0.70710688829422,
				0,
				0,
				0.7071066498756409
			]
		},
		{
			"mesh":2,
			"name":"Cube"
		}
	],
	"materials":[
		{
			"doubleSided":true,
			"name":"Material.001",
			"pbrMetallicRoughness":{
				"baseColorFactor":[
					0.800000011920929,
					0.800000011920929,
					0.800000011920929,
					1
				],
				"metallicFactor":0,
				"roughnessFactor":0.5
			}
		},
		{
			"doubleSided":true,
			"extensions":{
				"KHR_materials_specular":{
					"specularColorFactor":[
						1.4600000381469727,
						1.4600000381469727,
						1.4600000381469727
					]
				}
			},
			"name":"d8a55a9f_dds",
			"pbrMetallicRoughness":{
				"baseColorTexture":{
					"index":0
				},
				"metallicFactor":0.17000000178813934
			}
		},
		{
			"doubleSided":true,
			"extensions":{
				"KHR_materials_specular":{
					"specularColorFactor":[
						1.4600000381469727,
						1.4600000381469727,
						1.4600000381469727
					]
				}
			},
			"name":"7cfc9e4e_dds",
			"pbrMetallicRoughness":{
				"baseColorTexture":{
					"index":1
				},
				"metallicFactor":0.17000000178813934
			}
		},
		{
			"doubleSided":true,
			"extensions":{
				"KHR_materials_specular":{
					"specularColorFactor":[
						1.4600000381469727,
						1.4600000381469727,
						1.4600000381469727
					]
				}
			},
			"name":"a0326c1d_dds",
			"pbrMetallicRoughness":{
				"baseColorTexture":{
					"index":2
				},
				"metallicFactor":0.17000000178813934
			}
		},
		{
			"doubleSided":true,
			"extensions":{
				"KHR_materials_specular":{
					"specularColorFactor":[
						1.4600000381469727,
						1.4600000381469727,
						1.4600000381469727
					]
				}
			},
			"name":"6bef6eb8_dds",
			"pbrMetallicRoughness":{
				"baseColorTexture":{
					"index":3
				},
				"metallicFactor":0.17000000178813934
			}
		},
		{
			"doubleSided":true,
			"name":"Material",
			"pbrMetallicRoughness":{
				"baseColorFactor":[
					0.800000011920929,
					0.800000011920929,
					0.800000011920929,
					1
				],
				"metallicFactor":0,
				"roughnessFactor":0.5
			}
		}
	],
	"meshes":[
		{
			"name":"Cube.001",
			"primitives":[
				{
					"attributes":{
						"POSITION":0,
						"NORMAL":1,
						"TEXCOORD_0":2
					},
					"indices":3,
					"material":0
				}
			]
		},
		{
			"name":"carrier",
			"primitives":[
				{
					"attributes":{
						"POSITION":4,
						"NORMAL":5,
						"TEXCOORD_0":6
					},
					"indices":7,
					"material":1
				},
				{
					"attributes":{
						"POSITION":8,
						"NORMAL":9,
						"TEXCOORD_0":10
					},
					"indices":11,
					"material":2
				},
				{
					"attributes":{
						"POSITION":12,
						"NORMAL":13,
						"TEXCOORD_0":14
					},
					"indices":15,
					"material":3
				},
				{
					"attributes":{
						"POSITION":16,
						"NORMAL":17,
						"TEXCOORD_0":18
					},
					"indices":19,
					"material":4
				}
			]
		},
		{
			"name":"Cube",
			"primitives":[
				{
					"attributes":{
						"POSITION":20,
						"NORMAL":21,
						"TEXCOORD_0":22
					},
					"indices":23,
					"material":5
				}
			]
		}
	],
	"textures":[
		{
			"sampler":0,
			"source":0
		},
		{
			"sampler":0,
			"source":1
		},
		{
			"sampler":0,
			"source":2
		},
		{
			"sampler":0,
			"source":3
		}
	],
	"images":[
		{
			"mimeType":"image/png",
			"name":"d8a55a9f",
			"uri":"d8a55a9f.png"
		},
		{
			"mimeType":"image/png",
			"name":"7cfc9e4e",
			"uri":"7cfc9e4e.png"
		},
		{
			"mimeType":"image/png",
			"name":"a0326c1d",
			"uri":"a0326c1d.png"
		},
		{
			"mimeType":"image/png",
			"name":"6bef6eb8",
			"uri":"6bef6eb8.png"
		}
	],
	"accessors":[
		{
			"bufferView":0,
			"componentType":5126,
			"count":24,
			"max":[
				1,
				1,
				1
			],
			"min":[
				-1,
				-1,
				-1
			],
			"type":"VEC3"
		},
		{
			"bufferView":1,
			"componentType":5126,
			"count":24,
			"type":"VEC3"
		},
		{
			"bufferView":2,
			"componentType":5126,
			"count":24,
			"type":"VEC2"
		},
		{
			"bufferView":3,
			"componentType":5123,
			"count":36,
			"type":"SCALAR"
		},
		{
			"bufferView":4,
			"componentType":5126,
			"count":2556,
			"max":[
				43.835689544677734,
				124.27900695800781,
				15.177383422851562
			],
			"min":[
				-34.32789993286133,
				-177.88099670410156,
				-53.0635986328125
			],
			"type":"VEC3"
		},
		{
			"bufferView":5,
			"componentType":5126,
			"count":2556,
			"type":"VEC3"
		},
		{
			"bufferView":6,
			"componentType":5126,
			"count":2556,
			"type":"VEC2"
		},
		{
			"bufferView":7,
			"componentType":5123,
			"count":3450,
			"type":"SCALAR"
		},
		{
			"bufferView":8,
			"componentType":5126,
			"count":30,
			"max":[
				35.0085563659668,
				96.82640838623047,
				-12.805000305175781
			],
			"min":[
				-22.993499755859375,
				-93.87149810791016,
				-13.503399848937988
			],
			"type":"VEC3"
		},
		{
			"bufferView":9,
			"componentType":5126,
			"count":30,
			"type":"VEC3"
		},
		{
			"bufferView":10,
			"componentType":5126,
			"count":30,
			"type":"VEC2"
		},
		{
			"bufferView":11,
			"componentType":5123,
			"count":36,
			"type":"SCALAR"
		},
		{
			"bufferView":12,
			"componentType":5126,
			"count":160,
			"max":[
				37.90928268432617,
				118.48200225830078,
				-7.844730377197266
			],
			"min":[
				-32.24850082397461,
				-22.600000381469727,
				-15.543399810791016
			],
			"type":"VEC3"
		},
		{
			"bufferView":13,
			"componentType":5126,
			"count":160,
			"type":"VEC3"
		},
		{
			"bufferView":14,
			"componentType":5126,
			"count":160,
			"type":"VEC2"
		},
		{
			"bufferView":15,
			"componentType":5123,
			"count":180,
			"type":"SCALAR"
		},
		{
			"bufferView":16,
			"componentType":5126,
			"count":234,
			"max":[
				33.907073974609375,
				104.99700164794922,
				-10.087764739990234
			],
			"min":[
				-21.85919952392578,
				-101.00499725341797,
				-13.910300254821777
			],
			"type":"VEC3"
		},
		{
			"bufferView":17,
			"componentType":5126,
			"count":234,
			"type":"VEC3"
		},
		{
			"bufferView":18,
			"componentType":5126,
			"count":234,
			"type":"VEC2"
		},
		{
			"bufferView":19,
			"componentType":5123,
			"count":288,
			"type":"SCALAR"
		},
		{
			"bufferView":20,
			"componentType":5126,
			"count":24,
			"max":[
				1,
				1,
				1
			],
			"min":[
				-1,
				-1,
				-1
			],
			"type":"VEC3"
		},
		{
			"bufferView":21,
			"componentType":5126,
			"count":24,
			"type":"VEC3"
		},
		{
			"bufferView":22,
			"componentType":5126,
			"count":24,
			"type":"VEC2"
		},
		{
			"bufferView":23,
			"componentType":5123,
			"count":36,
			"type":"SCALAR"
		}
	],
	"bufferViews":[
		{
			"buffer":0,
			"byteLength":288,
			"byteOffset":0,
			"target":34962
		},
		{
			"buffer":0,
			"byteLength":288,
			"byteOffset":288,
			"target":34962
		},
		{
			"buffer":0,
			"byteLength":192,
			"byteOffset":576,
			"target":34962
		},
		{
			"buffer":0,
			"byteLength":72,
			"byteOffset":768,
			"target":34963
		},
		{
			"buffer":0,
			"byteLength":30672,
			"byteOffset":840,
			"target":34962
		},
		{
			"buffer":0,
			"byteLength":30672,
			"byteOffset":31512,
			"target":34962
		},
		{
			"buffer":0,
			"byteLength":20448,
			"byteOffset":62184,
			"target":34962
		},
		{
			"buffer":0,
			"byteLength":6900,
			"byteOffset":82632,
			"target":34963
		},
		{
			"buffer":0,
			"byteLength":360,
			"byteOffset":89532,
			"target":34962
		},
		{
			"buffer":0,
			"byteLength":360,
			"byteOffset":89892,
			"target":34962
		},
		{
			"buffer":0,
			"byteLength":240,
			"byteOffset":90252,
			"target":34962
		},
		{
			"buffer":0,
			"byteLength":72,
			"byteOffset":90492,
			"target":34963
		},
		{
			"buffer":0,
			"byteLength":1920,
			"byteOffset":90564,
			"target":34962
		},
		{
			"buffer":0,
			"byteLength":1920,
			"byteOffset":92484,
			"target":34962
		},
		{
			"buffer":0,
			"byteLength":1280,
			"byteOffset":94404,
			"target":34962
		},
		{
			"buffer":0,
			"byteLength":360,
			"byteOffset":95684,
			"target":34963
		},
		{
			"buffer":0,
			"byteLength":2808,
			"byteOffset":96044,
			"target":34962
		},
		{
			"buffer":0,
			"byteLength":2808,
			"byteOffset":98852,
			"target":34962
		},
		{
			"buffer":0,
			"byteLength":1872,
			"byteOffset":101660,
			"target":34962
		},
		{
			"buffer":0,
			"byteLength":576,
			"byteOffset":103532,
			"target":34963
		},
		{
			"buffer":0,
			"byteLength":288,
			"byteOffset":104108,
			"target":34962
		},
		{
			"buffer":0,
			"byteLength":288,
			"byteOffset":104396,
			"target":34962
		},
		{
			"buffer":0,
			"byteLength":192,
			"byteOffset":104684,
			"target":34962
		},
		{
			"buffer":0,
			"byteLength":72,
			"byteOffset":104876,
			"target":34963
		}
	],
	"samplers":[
		{
			"magFilter":9729,
			"minFilter":9987
		}
	],
	"buffers":[
		{
			"byteLength":104948,
			"uri":"scene.bin"
		}
	]
}
